<?xml version="1.0" encoding="UTF-8"?>
<svg width="1400" height="760" viewBox="0 0 1400 760" xmlns="http://www.w3.org/2000/svg">
  <defs>
    <radialGradient id="bg" cx="50%" cy="50%" r="75%">
      <stop offset="0%" stop-color="#0e2843"/>
      <stop offset="100%" stop-color="#0b1f33"/>
    </radialGradient>
  </defs>
  <rect width="100%" height="100%" fill="url(#bg)"/>
  <text x="700.0" y="70" text-anchor="middle" font-family="Inter, Arial, Helvetica, sans-serif" font-size="34" fill="#f4f7fb" opacity="0.9" letter-spacing="2">
    CHELSEA JADE — GLOBAL PRESENCE
  </text>
  <path d="M 0.00 0 L 0.00 760" stroke="#14324f" stroke-width="1" opacity="0.45"/><path d="M 116.67 0 L 116.67 760" stroke="#14324f" stroke-width="1" opacity="0.45"/><path d="M 233.33 0 L 233.33 760" stroke="#14324f" stroke-width="1" opacity="0.45"/><path d="M 350.00 0 L 350.00 760" stroke="#14324f" stroke-width="1" opacity="0.45"/><path d="M 466.67 0 L 466.67 760" stroke="#14324f" stroke-width="1" opacity="0.45"/><path d="M 583.33 0 L 583.33 760" stroke="#14324f" stroke-width="1" opacity="0.45"/><path d="M 700.00 0 L 700.00 760" stroke="#14324f" stroke-width="1" opacity="0.45"/><path d="M 816.67 0 L 816.67 760" stroke="#14324f" stroke-width="1" opacity="0.45"/><path d="M 933.33 0 L 933.33 760" stroke="#14324f" stroke-width="1" opacity="0.45"/><path d="M 1050.00 0 L 1050.00 760" stroke="#14324f" stroke-width="1" opacity="0.45"/><path d="M 1166.67 0 L 1166.67 760" stroke="#14324f" stroke-width="1" opacity="0.45"/><path d="M 1283.33 0 L 1283.33 760" stroke="#14324f" stroke-width="1" opacity="0.45"/><path d="M 1400.00 0 L 1400.00 760" stroke="#14324f" stroke-width="1" opacity="0.45"/><path d="M 0 633.33 L 1400 633.33" stroke="#14324f" stroke-width="1" opacity="0.45"/><path d="M 0 506.67 L 1400 506.67" stroke="#14324f" stroke-width="1" opacity="0.45"/><path d="M 0 380.00 L 1400 380.00" stroke="#14324f" stroke-width="1" opacity="0.45"/><path d="M 0 253.33 L 1400 253.33" stroke="#14324f" stroke-width="1" opacity="0.45"/><path d="M 0 126.67 L 1400 126.67" stroke="#14324f" stroke-width="1" opacity="0.45"/><path d="M 0 0.00 L 1400 0.00" stroke="#14324f" stroke-width="1" opacity="0.45"/>
  <path d="M 80 418.0 C 350.0 228.0, 630.0 494.0, 910.0 342.0" fill="none" stroke="#0f2740" stroke-width="22" opacity="0.25"/><path d="M 210.0 228.0 C 490.0 114.0, 980.0 190.0, 1190.0 152.0" fill="none" stroke="#0f2740" stroke-width="18" opacity="0.25"/><path d="M 420.0 570.0 C 770.0 532.0, 1120.0 608.0, 1330.0 494.0" fill="none" stroke="#0f2740" stroke-width="18" opacity="0.25"/>
  <circle cx="699.50" cy="162.52" r="7" fill="#c9a227"/><circle cx="699.50" cy="162.52" r="12" fill="none" stroke="#c9a227" stroke-width="2" opacity="0.65"/><text x="713.50" y="152.52" font-family="Inter, Arial, Helvetica, sans-serif" font-size="22" fill="#f4f7fb">London</text><circle cx="781.71" cy="159.47" r="7" fill="#c9a227"/><circle cx="781.71" cy="159.47" r="12" fill="none" stroke="#c9a227" stroke-width="2" opacity="0.65"/><text x="795.71" y="149.47" font-family="Inter, Arial, Helvetica, sans-serif" font-size="22" fill="#f4f7fb">Warsaw</text><circle cx="1143.99" cy="285.76" r="7" fill="#c9a227"/><circle cx="1143.99" cy="285.76" r="12" fill="none" stroke="#c9a227" stroke-width="2" opacity="0.65"/><text x="1157.99" y="275.76" font-family="Inter, Arial, Helvetica, sans-serif" font-size="22" fill="#f4f7fb">Hong Kong</text><circle cx="1143.56" cy="284.82" r="7" fill="#c9a227"/><circle cx="1143.56" cy="284.82" r="12" fill="none" stroke="#c9a227" stroke-width="2" opacity="0.65"/><text x="1157.56" y="274.82" font-family="Inter, Arial, Helvetica, sans-serif" font-size="22" fill="#f4f7fb">Shenzhen</text>
  <g transform="translate(1060,670)">
    <circle cx="0" cy="0" r="6" fill="#c9a227"/>
    <text x="14" y="6" font-family="Inter, Arial, Helvetica, sans-serif" font-size="18" fill="#f4f7fb" opacity="0.9">Representative Office</text>
  </g>
</svg>
